<svg width="251.95017089843748px" height="64.4px" xmlns="http://www.w3.org/2000/svg" viewBox="124.02491455078126 42.8 251.95017089843748 64.4" style="background: rgba(253, 253, 253, 0);" preserveAspectRatio="xMidYMid"><defs><filter id="editing-extrude-glow"><feFlood flood-color="#ffffff" result="flood-1"></feFlood><feMorphology operator="erode" radius="1" in="SourceAlpha" result="erode"></feMorphology><feComposite operator="in" in="flood-1" in2="erode" result="comp1"></feComposite><feConvolveMatrix order="0,0" divisor="1" in="comp1" result="convolve" kernelMatrix=""></feConvolveMatrix><feOffset dx="0" dy="0" in="convolve" result="extrude"></feOffset><feComposite operator="in" in="flood-1" in2="extrude" result="comp-extrude"></feComposite><feFlood flood-color="#ffffff" result="flood-2"></feFlood><feComposite operator="in" in="flood-2" in2="SourceAlpha" result="comp2"></feComposite><feMorphology operator="dilate" radius="1" in="comp2" result="dilate"></feMorphology><feOffset dx="0" dy="0" in="dilate" result="offset"></feOffset><feGaussianBlur in="offset" stdDeviation="5.8" result="blur"></feGaussianBlur><feComponentTransfer in="blur" result="shadow"><feFuncA type="linear" slope="0.8" intercept="-0.2"></feFuncA></feComponentTransfer><feMerge><feMergeNode in="shadow"></feMergeNode><feMergeNode in="comp-extrude"></feMergeNode><feMergeNode in="SourceGraphic"></feMergeNode></feMerge></filter></defs><g filter="url(#editing-extrude-glow)"><g transform="translate(158.40102291107178, 85.36000156402588)"><path d="M8.48-13.64L8.48-13.64L8.48-13.64Q7.53-14.36 7.53-15.92L7.53-15.92L7.53-15.92Q7.53-17.47 8.55-18.28L8.55-18.28L8.55-18.28Q9.58-19.10 11.34-19.10L11.34-19.10L11.34-19.10Q12.46-19.10 15.12-18.70L15.12-18.70L17.02-18.42L17.02-18.42Q17.98-18.31 18.97-18.31L18.97-18.31L18.97-18.31Q19.96-18.31 20.64-18.73L20.64-18.73L20.64-18.73Q21.64-17.84 21.64-16.55L21.64-16.55L21.64-16.55Q21.64-15.26 20.50-14.34L20.50-14.34L20.50-14.34Q19.32-13.36 17.81-13.36L17.81-13.36L17.81-13.36Q17.08-13.36 15.90-13.55L15.90-13.55L15.90-13.55Q14.53-9.24 14.53-6.24L14.53-6.24L14.53-6.24Q14.53-3.25 16.04-1.68L16.04-1.68L16.04-1.68Q15.34-0.42 14.31 0.07L14.31 0.07L14.31 0.07Q13.27 0.56 11.72 0.56L11.72 0.56L11.72 0.56Q10.16 0.56 9.20-0.29L9.20-0.29L9.20-0.29Q8.23-1.15 8.23-2.91L8.23-2.91L8.23-2.91Q8.23-4.96 9.35-8.32L9.35-8.32L9.35-8.32Q10.47-11.65 12.15-14.20L12.15-14.20L12.15-14.20Q11.34-14.28 10.50-14.28L10.50-14.28L10.50-14.28Q8.76-14.28 8.48-13.64ZM30.80-4.73L30.80-4.73L30.80-4.73Q31.50-4.26 31.50-3.21L31.50-3.21L31.50-3.21Q31.50-2.16 30.97-1.48L30.97-1.48L30.97-1.48Q30.44-0.81 29.57-0.36L29.57-0.36L29.57-0.36Q27.78 0.56 25.84 0.56L25.84 0.56L25.84 0.56Q23.91 0.56 22.78 0.14L22.78 0.14L22.78 0.14Q21.64-0.28 20.89-1.06L20.89-1.06L20.89-1.06Q19.40-2.55 19.40-5.26L19.40-5.26L19.40-5.26Q19.40-9.49 21.70-12.07L21.70-12.07L21.70-12.07Q24.16-14.84 28.45-14.84L28.45-14.84L28.45-14.84Q31.11-14.84 32.42-13.72L32.42-13.72L32.42-13.72Q33.40-12.88 33.40-11.51L33.40-11.51L33.40-11.51Q33.40-6.58 24.89-6.58L24.89-6.58L24.89-6.58Q24.78-5.85 24.78-5.24L24.78-5.24L24.78-5.24Q24.78-3.95 25.35-3.46L25.35-3.46L25.35-3.46Q25.93-2.97 26.99-2.97L26.99-2.97L26.99-2.97Q28.06-2.97 29.19-3.46L29.19-3.46L29.19-3.46Q30.32-3.95 30.80-4.73ZM25.09-7.78L25.09-7.78L25.09-7.78Q27.08-7.78 28.22-9.02L28.22-9.02L28.22-9.02Q29.37-10.19 29.37-12.07L29.37-12.07L29.37-12.07Q29.37-12.71 29.13-13.06L29.13-13.06L29.13-13.06Q28.90-13.41 28.42-13.41L28.42-13.41L28.42-13.41Q27.94-13.41 27.54-13.23L27.54-13.23L27.54-13.23Q27.13-13.05 26.71-12.43L26.71-12.43L26.71-12.43Q25.68-11.03 25.09-7.78ZM48.10-11.65L48.10-11.65L48.10-11.65Q48.10-10.47 47.12-9.74L47.12-9.74L47.12-9.74Q46.14-9.02 44.55-9.02L44.55-9.02L44.55-9.02Q43.88-9.02 43.48-9.21L43.48-9.21L43.48-9.21Q43.79-9.94 43.89-10.85L43.89-10.85L43.89-10.85Q43.99-11.76 43.99-12.01L43.99-12.01L43.99-12.01Q43.99-13.19 43.18-13.19L43.18-13.19L43.18-13.19Q42.62-13.19 41.99-12.49L41.99-12.49L41.99-12.49Q41.36-11.79 40.82-10.70L40.82-10.70L40.82-10.70Q39.65-8.18 39.65-5.63L39.65-5.63L39.65-5.63Q39.65-4.23 40.18-3.60L40.18-3.60L40.18-3.60Q40.71-2.97 41.89-2.97L41.89-2.97L41.89-2.97Q43.51-2.97 44.80-4.31L44.80-4.31L44.80-4.31Q45.16-4.73 45.36-5.21L45.36-5.21L45.36-5.21Q46.42-4.65 46.42-3.11L46.42-3.11L46.42-3.11Q46.42-1.54 44.69-0.50L44.69-0.50L44.69-0.50Q42.90 0.56 40.04 0.56L40.04 0.56L40.04 0.56Q34.36 0.56 34.36-5.46L34.36-5.46L34.36-5.46Q34.36-9.86 36.85-12.38L36.85-12.38L36.85-12.38Q39.26-14.84 43.68-14.84L43.68-14.84L43.68-14.84Q48.10-14.84 48.10-11.65ZM62.94-3.11L62.94-3.11L62.94-3.11Q62.94-1.88 64.20-1.51L64.20-1.51L64.20-1.51Q63.90-0.48 62.69 0.08L62.69 0.08L62.69 0.08Q61.68 0.56 60.58 0.56L60.58 0.56L60.58 0.56Q59.47 0.56 58.90 0.27L58.90 0.27L58.90 0.27Q58.32-0.03 58.02-0.50L58.02-0.50L58.02-0.50Q57.51-1.23 57.51-2.60L57.51-2.60L57.51-2.60Q57.51-3.42 57.96-5.66L57.96-5.66L58.35-7.78L58.35-7.78Q58.83-10.22 58.83-11.12L58.83-11.12L58.83-11.12Q58.83-12.68 57.96-12.68L57.96-12.68L57.96-12.68Q56.87-12.68 56.17-11.09L56.17-11.09L56.17-11.09Q55.89-10.47 55.69-9.55L55.69-9.55L53.79 0L48.16 0.56L52.11-19.60L57.74-20.16L57.51-19.04L57.51-19.04Q56.73-14.73 56.06-13.27L56.06-13.27L56.06-13.27Q57.62-14.84 60.51-14.84L60.51-14.84L60.51-14.84Q63.56-14.84 64.12-12.82L64.12-12.82L64.12-12.82Q64.32-12.18 64.32-11.62L64.32-11.62L64.32-11.62Q64.32-11.06 64.27-10.63L64.27-10.63L64.27-10.63Q64.23-10.19 64.09-9.41L64.09-9.41L63.73-7.39L63.08-4.23L63.08-4.23Q62.94-3.58 62.94-3.11ZM78.32 0.56L78.32 0.56L78.32 0.56Q74.93 0.56 74.93-2.07L74.93-2.07L74.93-2.07Q74.96-2.80 75.18-4.03L75.18-4.03L75.68-6.61L75.68-6.61Q76.44-10.25 76.44-11.06L76.44-11.06L76.44-11.06Q76.44-12.68 75.49-12.68L75.49-12.68L75.49-12.68Q73.89-12.68 73.05-8.51L73.05-8.51L71.40 0L65.77 0.56L68.68-14.31L73.28-14.84L72.83-12.10L72.83-12.10Q74.14-14.84 78.18-14.84L78.18-14.84L78.18-14.84Q80.14-14.84 80.96-14.01L80.96-14.01L80.96-14.01Q81.79-13.19 81.79-11.34L81.79-11.34L81.79-11.34Q81.79-9.60 80.89-5.54L80.89-5.54L80.89-5.54Q80.47-3.72 80.47-3.04L80.47-3.04L80.47-3.04Q80.47-2.35 80.85-1.96L80.85-1.96L80.85-1.96Q81.23-1.57 81.79-1.51L81.79-1.51L81.79-1.51Q81.51-0.56 80.54 0L80.54 0L80.54 0Q79.58 0.56 78.32 0.56ZM90.13 0.56L90.13 0.56L90.13 0.56Q83.97 0.56 83.97-5.24L83.97-5.24L83.97-5.24Q83.97-9.35 86.24-12.01L86.24-12.01L86.24-12.01Q88.65-14.84 92.82-14.84L92.82-14.84L92.82-14.84Q95.84-14.84 97.38-13.44L97.38-13.44L97.38-13.44Q98.92-12.04 98.92-9.10L98.92-9.10L98.92-9.10Q98.92-4.62 96.52-2.02L96.52-2.02L96.52-2.02Q94.16 0.56 90.13 0.56ZM90.86-11.62L90.86-11.62L90.86-11.62Q90.52-10.86 90.26-9.73L90.26-9.73L90.26-9.73Q89.99-8.60 89.66-6.80L89.66-6.80L89.66-6.80Q89.32-5.01 89.32-2.80L89.32-2.80L89.32-2.80Q89.32-2.07 89.56-1.60L89.56-1.60L89.56-1.60Q89.80-1.12 90.44-1.12L90.44-1.12L90.44-1.12Q91.08-1.12 91.49-1.43L91.49-1.43L91.49-1.43Q91.90-1.74 92.20-2.46L92.20-2.46L92.20-2.46Q92.76-3.75 93.21-6.15L93.21-6.15L93.21-6.15Q93.66-8.54 93.70-9.58L93.70-9.58L93.70-9.58Q93.74-10.61 93.74-11.38L93.74-11.38L93.74-11.38Q93.74-12.15 93.52-12.66L93.52-12.66L93.52-12.66Q93.30-13.16 92.67-13.16L92.67-13.16L92.67-13.16Q92.04-13.16 91.62-12.77L91.62-12.77L91.62-12.77Q91.20-12.38 90.86-11.62ZM100.21-1.34L100.21-1.34L103.68-19.60L109.37-20.16L108.50-15.88L108.50-15.88Q108.19-14.56 107.80-13.64L107.80-13.64L107.80-13.64Q108.42-14.42 109.76-14.73L109.76-14.73L109.76-14.73Q110.15-14.84 110.63-14.84L110.63-14.84L110.63-14.84Q113.23-14.84 114.66-13.26L114.66-13.26L114.66-13.26Q116.09-11.68 116.09-8.62L116.09-8.62L116.09-8.62Q116.09-4.65 113.82-2.16L113.82-2.16L113.82-2.16Q111.38 0.56 106.96 0.56L106.96 0.56L106.96 0.56Q103.91 0.56 101.61-0.45L101.61-0.45L101.61-0.45Q100.80-0.81 100.21-1.34ZM107.32-9.80L105.84-1.60L105.84-1.60Q106.43-1.09 107.16-1.09L107.16-1.09L107.16-1.09Q107.88-1.09 108.30-1.37L108.30-1.37L108.30-1.37Q108.72-1.65 109.03-2.21L109.03-2.21L109.03-2.21Q109.87-3.72 110.54-8.34L110.54-8.34L110.54-8.34Q110.74-9.66 110.74-10.98L110.74-10.98L110.74-10.98Q110.74-12.29 110.45-12.71L110.45-12.71L110.45-12.71Q110.15-13.13 109.59-13.13L109.59-13.13L109.59-13.13Q107.88-13.13 107.32-9.80L107.32-9.80ZM124.46-1.54L124.46-1.54L124.46-1.54Q123.59 0.56 120.82 0.56L120.82 0.56L120.82 0.56Q119.42 0.56 118.52-0.42L118.52-0.42L118.52-0.42Q117.80-1.23 117.80-2.16L117.80-2.16L117.80-2.16Q117.80-4.26 118.78-8.85L118.78-8.85L120.82-19.60L126.50-20.16L123.79-5.99L123.79-5.99Q123.31-3.92 123.31-3.19L123.31-3.19L123.31-3.19Q123.31-1.60 124.46-1.54ZM128.06-0.84L128.06-0.84L128.06-0.84Q127.40-1.57 127.11-2.72L127.11-2.72L127.11-2.72Q126.81-3.86 126.81-5.74L126.81-5.74L126.81-5.74Q126.81-7.62 127.46-9.32L127.46-9.32L127.46-9.32Q128.10-11.03 129.28-12.26L129.28-12.26L129.28-12.26Q131.68-14.84 135.66-14.84L135.66-14.84L135.66-14.84Q137.09-14.84 138.12-14.36L138.12-14.36L142.91-14.84L140.84-3.92L140.84-3.92Q140.76-3.58 140.76-2.97L140.76-2.97L140.76-2.97Q140.76-2.35 141.13-1.96L141.13-1.96L141.13-1.96Q141.51-1.57 142.07-1.51L142.07-1.51L142.07-1.51Q141.79-0.56 140.77 0L140.77 0L140.77 0Q139.75 0.56 138.60 0.56L138.60 0.56L138.60 0.56Q137.45 0.56 136.68 0.13L136.68 0.13L136.68 0.13Q135.91-0.31 135.69-1.04L135.69-1.04L135.69-1.04Q135.24-0.34 134.29 0.11L134.29 0.11L134.29 0.11Q133.34 0.56 132.06 0.56L132.06 0.56L132.06 0.56Q130.79 0.56 129.75 0.22L129.75 0.22L129.75 0.22Q128.72-0.11 128.06-0.84ZM133.97-12.21L133.97-12.21L133.97-12.21Q133.64-11.70 133.36-10.85L133.36-10.85L133.36-10.85Q133.08-10.00 132.62-7.71L132.62-7.71L132.62-7.71Q132.16-5.43 132.16-3.81L132.16-3.81L132.16-3.81Q132.16-2.18 132.41-1.71L132.41-1.71L132.41-1.71Q132.66-1.23 133.11-1.23L133.11-1.23L133.11-1.23Q134.01-1.23 134.67-2.09L134.67-2.09L134.67-2.09Q135.32-2.94 135.58-4.45L135.58-4.45L137.06-12.66L137.06-12.66Q136.47-13.16 135.79-13.16L135.79-13.16L135.79-13.16Q135.10-13.16 134.69-12.94L134.69-12.94L134.69-12.94Q134.29-12.71 133.97-12.21ZM153.13-14.84L153.13-14.84L153.13-14.84Q154.14-14.84 154.92-14.62L154.92-14.62L154.92-14.62Q154.95-14.73 155.01-15.04L155.01-15.04L155.15-15.90L155.15-15.90Q155.26-16.46 155.43-17.39L155.43-17.39L155.88-19.60L161.45-20.16L158.34-3.92L158.34-3.92Q158.31-3.75 158.31-3.47L158.31-3.47L158.31-3.02L158.31-3.02Q158.31-2.41 158.62-1.95L158.62-1.95L158.62-1.95Q158.93-1.48 159.43-1.48L159.43-1.48L159.43-1.48Q158.87-0.17 157.16 0.39L157.16 0.39L157.16 0.39Q156.58 0.56 155.75 0.56L155.75 0.56L155.75 0.56Q154.92 0.56 154.17 0.13L154.17 0.13L154.17 0.13Q153.41-0.31 153.19-1.04L153.19-1.04L153.19-1.04Q152.74-0.31 151.84 0.13L151.84 0.13L151.84 0.13Q150.95 0.56 149.65 0.56L149.65 0.56L149.65 0.56Q148.34 0.56 147.27 0.22L147.27 0.22L147.27 0.22Q146.19-0.11 145.52-0.84L145.52-0.84L145.52-0.84Q144.28-2.27 144.28-5.52L144.28-5.52L144.28-5.52Q144.28-9.72 146.75-12.26L146.75-12.26L146.75-12.26Q149.21-14.84 153.13-14.84ZM152.94-13.16L152.94-13.16L152.94-13.16Q151.90-13.16 151.34-12.04L151.34-12.04L151.34-12.04Q150.78-10.92 150.21-8.15L150.21-8.15L150.21-8.15Q149.63-5.38 149.63-2.88L149.63-2.88L149.63-2.88Q149.63-1.18 150.64-1.18L150.64-1.18L150.64-1.18Q151.54-1.18 152.17-2.07L152.17-2.07L152.17-2.07Q152.80-2.97 153.05-4.45L153.05-4.45L154.56-12.66L154.56-12.66Q153.97-13.16 152.94-13.16ZM173.15-4.73L173.15-4.73L173.15-4.73Q173.85-4.26 173.85-3.21L173.85-3.21L173.85-3.21Q173.85-2.16 173.32-1.48L173.32-1.48L173.32-1.48Q172.79-0.81 171.92-0.36L171.92-0.36L171.92-0.36Q170.13 0.56 168.20 0.56L168.20 0.56L168.20 0.56Q166.26 0.56 165.13 0.14L165.13 0.14L165.13 0.14Q164.00-0.28 163.24-1.06L163.24-1.06L163.24-1.06Q161.76-2.55 161.76-5.26L161.76-5.26L161.76-5.26Q161.76-9.49 164.05-12.07L164.05-12.07L164.05-12.07Q166.52-14.84 170.80-14.84L170.80-14.84L170.80-14.84Q173.46-14.84 174.78-13.72L174.78-13.72L174.78-13.72Q175.76-12.88 175.76-11.51L175.76-11.51L175.76-11.51Q175.76-6.58 167.24-6.58L167.24-6.58L167.24-6.58Q167.13-5.85 167.13-5.24L167.13-5.24L167.13-5.24Q167.13-3.95 167.71-3.46L167.71-3.46L167.71-3.46Q168.28-2.97 169.34-2.97L169.34-2.97L169.34-2.97Q170.41-2.97 171.54-3.46L171.54-3.46L171.54-3.46Q172.68-3.95 173.15-4.73ZM167.44-7.78L167.44-7.78L167.44-7.78Q169.43-7.78 170.58-9.02L170.58-9.02L170.58-9.02Q171.72-10.19 171.72-12.07L171.72-12.07L171.72-12.07Q171.72-12.71 171.49-13.06L171.49-13.06L171.49-13.06Q171.25-13.41 170.77-13.41L170.77-13.41L170.77-13.41Q170.30-13.41 169.89-13.23L169.89-13.23L169.89-13.23Q169.48-13.05 169.06-12.43L169.06-12.43L169.06-12.43Q168.03-11.03 167.44-7.78Z" fill="#ff5656"></path></g></g><style>text {
  font-size: 64px;
  font-family: Arial Black;
  dominant-baseline: central;
  text-anchor: middle;
}</style></svg>